# Blender 4.2.3 LTS
# www.blender.org
mtllib untitled.mtl
o Cube.001
v -1.000000 -1.000000 -1.000000
v -1.000000 -1.000000 1.000000
v -1.000000 1.000000 -1.000000
v -1.000000 1.000000 1.000000
v 1.000000 -1.000000 -1.000000
v 1.000000 -1.000000 1.000000
v 1.000000 1.000000 -1.000000
v 1.000000 1.000000 1.000000
vn 1.0000 -0.0000 -0.0000
vn -0.0000 -1.0000 -0.0000
vn -0.0000 -0.0000 -1.0000
vn -0.0000 -0.0000 1.0000
vn -1.0000 -0.0000 -0.0000
vn -0.0000 1.0000 -0.0000
vt 0.625000 0.750000
vt 0.375000 0.500000
vt 0.625000 0.500000
vt 0.625000 1.000000
vt 0.375000 0.750000
vt 0.125000 0.500000
vt 0.875000 0.750000
vt 0.875000 0.500000
vt 0.625000 0.250000
vt 0.375000 0.000000
vt 0.625000 0.000000
vt 0.375000 0.250000
vt 0.375000 1.000000
vt 0.125000 0.750000
s 0
usemtl mat2
f 6/1/1 7/2/1 8/3/1
f 2/4/2 5/5/2 6/1/2
f 5/5/3 3/6/3 7/2/3
f 2/7/4 8/3/4 4/8/4
f 4/9/5 1/10/5 2/11/5
f 8/3/6 3/12/6 4/9/6
f 6/1/1 5/5/1 7/2/1
f 2/4/2 1/13/2 5/5/2
f 5/5/3 1/14/3 3/6/3
f 2/7/4 6/1/4 8/3/4
f 4/9/5 3/12/5 1/10/5
f 8/3/6 7/2/6 3/12/6
